# Blender v2.91.2 OBJ File: ''
# www.blender.org
mtllib carretto.mtl
o Car_04
v -17.713856 18.866362 -22.012482
v 17.753342 5.313421 -27.901024
v -17.713860 5.313432 -27.901022
v 17.753345 18.866350 -22.012484
v 17.753345 5.313421 9.636329
v -17.713856 2.848931 25.589460
v 17.753345 2.848921 25.589458
v 17.753338 1.530879 -50.949501
v 17.753349 18.866350 7.608130
v -17.713852 18.866362 7.608131
v -17.713856 5.313432 9.636333
v -17.713863 1.530889 -50.949497
v -17.713860 -6.138717 25.589460
v 17.753344 -6.138726 25.589458
v -17.713867 -6.138717 -48.874001
v -17.713863 -6.138717 -27.901022
v 17.753338 -6.138726 -48.874004
v 17.753342 -6.138726 9.636329
v -17.713860 -6.138717 9.636333
v 17.753340 -6.138726 -27.901024
v -15.828023 -4.903100 -34.993397
v -15.828023 -4.903100 -40.262745
v -15.828023 -3.199926 -39.944965
v -19.147221 -4.903100 -40.262745
v -19.147221 -4.903100 -34.993397
v -19.147221 -3.199925 -39.944965
v -15.828023 -1.702182 -39.029953
v -19.147221 -1.702180 -39.029953
v -15.828023 -0.590514 -37.628071
v -19.147221 -0.590513 -37.628071
v -15.828023 0.000991 -35.908409
v -19.147221 0.000993 -35.908409
v -15.828023 0.000991 -34.078384
v -19.147221 0.000993 -34.078384
v -15.828023 -0.590514 -32.358723
v -19.147221 -0.590513 -32.358723
v -15.828023 -1.702182 -30.956842
v -19.147221 -1.702180 -30.956842
v -15.828023 -3.199926 -30.041830
v -19.147221 -3.199925 -30.041830
v -15.828023 -4.903100 -29.724049
v -19.147221 -4.903100 -29.724049
v -15.828025 -6.606273 -30.041830
v -19.147224 -6.606271 -30.041830
v -15.828025 -8.104018 -30.956842
v -19.147224 -8.104016 -30.956842
v -15.828027 -9.215685 -32.358723
v -19.147224 -9.215683 -32.358723
v -15.828027 -9.807191 -34.078384
v -19.147224 -9.807189 -34.078384
v -15.828027 -9.807191 -35.908409
v -19.147224 -9.807189 -35.908409
v -15.828027 -9.215685 -37.628071
v -19.147224 -9.215683 -37.628071
v -15.828027 -8.104018 -39.029953
v -19.147224 -8.104016 -39.029953
v -15.828025 -6.606273 -39.944965
v -19.147224 -6.606271 -39.944965
v 19.697048 -4.903110 -34.993397
v 19.697048 -4.903110 -40.262745
v 19.697048 -3.199936 -39.944965
v 16.377848 -4.903109 -40.262745
v 16.377850 -4.903109 -34.993397
v 16.377850 -3.199935 -39.944965
v 19.697048 -1.702191 -39.029953
v 16.377850 -1.702190 -39.029953
v 19.697048 -0.590524 -37.628071
v 16.377850 -0.590523 -37.628071
v 19.697048 0.000982 -35.908413
v 16.377850 0.000983 -35.908413
v 19.697048 0.000982 -34.078384
v 16.377850 0.000983 -34.078384
v 19.697048 -0.590524 -32.358723
v 16.377850 -0.590523 -32.358723
v 19.697048 -1.702191 -30.956844
v 16.377850 -1.702190 -30.956844
v 19.697048 -3.199936 -30.041832
v 16.377850 -3.199935 -30.041830
v 19.697048 -4.903110 -29.724051
v 16.377850 -4.903109 -29.724051
v 19.697048 -6.606283 -30.041832
v 16.377848 -6.606282 -30.041830
v 19.697048 -8.104028 -30.956844
v 16.377848 -8.104026 -30.956844
v 19.697044 -9.215695 -32.358723
v 16.377846 -9.215693 -32.358723
v 19.697044 -9.807200 -34.078384
v 16.377846 -9.807199 -34.078384
v 19.697044 -9.807200 -35.908413
v 16.377846 -9.807199 -35.908413
v 19.697044 -9.215695 -37.628071
v 16.377846 -9.215693 -37.628071
v 19.697044 -8.104028 -39.029953
v 16.377848 -8.104026 -39.029953
v 19.697048 -6.606283 -39.944965
v 16.377848 -6.606282 -39.944965
v -16.370644 -5.158564 8.531185
v -16.370644 -5.158564 3.261837
v -16.370644 -3.455389 3.579618
v -19.689842 -5.158562 3.261837
v -19.689842 -5.158562 8.531185
v -19.689842 -3.455389 3.579618
v -16.370644 -1.957645 4.494631
v -19.689842 -1.957644 4.494631
v -16.370644 -0.845978 5.896512
v -19.689842 -0.845977 5.896512
v -16.370644 -0.254472 7.616173
v -19.689842 -0.254471 7.616173
v -16.370644 -0.254472 9.446198
v -19.689842 -0.254471 9.446198
v -16.370644 -0.845978 11.165859
v -19.689842 -0.845977 11.165859
v -16.370644 -1.957645 12.567739
v -19.689842 -1.957644 12.567740
v -16.370644 -3.455389 13.482753
v -19.689842 -3.455389 13.482753
v -16.370644 -5.158564 13.800533
v -19.689842 -5.158562 13.800533
v -16.370644 -6.861737 13.482753
v -19.689842 -6.861735 13.482753
v -16.370644 -8.359482 12.567739
v -19.689842 -8.359480 12.567740
v -16.370647 -9.471148 11.165859
v -19.689846 -9.471148 11.165859
v -16.370647 -10.062654 9.446198
v -19.689846 -10.062654 9.446198
v -16.370647 -10.062654 7.616173
v -19.689846 -10.062654 7.616173
v -16.370647 -9.471148 5.896512
v -19.689846 -9.471148 5.896512
v -16.370647 -8.359482 4.494631
v -19.689846 -8.359480 4.494631
v -16.370647 -6.861737 3.579618
v -19.689846 -6.861735 3.579618
v 19.154430 -5.158574 8.531181
v 19.154430 -5.158574 3.261834
v 19.154430 -3.455400 3.579615
v 15.835228 -5.158572 3.261834
v 15.835228 -5.158572 8.531181
v 15.835229 -3.455400 3.579615
v 19.154427 -1.957655 4.494627
v 15.835230 -1.957654 4.494627
v 19.154427 -0.845987 5.896508
v 15.835230 -0.845987 5.896508
v 19.154430 -0.254482 7.616169
v 15.835230 -0.254481 7.616169
v 19.154430 -0.254482 9.446195
v 15.835230 -0.254481 9.446195
v 19.154430 -0.845987 11.165855
v 15.835230 -0.845987 11.165855
v 19.154430 -1.957655 12.567737
v 15.835230 -1.957654 12.567737
v 19.154430 -3.455400 13.482749
v 15.835229 -3.455400 13.482749
v 19.154430 -5.158574 13.800529
v 15.835229 -5.158572 13.800529
v 19.154427 -6.861747 13.482749
v 15.835228 -6.861746 13.482749
v 19.154427 -8.359492 12.567737
v 15.835228 -8.359490 12.567737
v 19.154427 -9.471159 11.165855
v 15.835227 -9.471157 11.165855
v 19.154427 -10.062665 9.446195
v 15.835227 -10.062663 9.446195
v 19.154427 -10.062665 7.616169
v 15.835227 -10.062663 7.616169
v 19.154427 -9.471159 5.896508
v 15.835227 -9.471157 5.896508
v 19.154427 -8.359492 4.494627
v 15.835228 -8.359490 4.494627
v 19.154427 -6.861747 3.579615
v 15.835228 -6.861746 3.579615
vt 0.657446 -0.225753
vt 0.342554 -0.181405
vt 0.657446 -0.181405
vt 0.342554 -0.225753
vt 0.342554 -0.464107
vt 0.657446 -0.584253
vt 0.342554 -0.584253
vt 0.342554 -0.007822
vt 0.342554 -0.448832
vt 0.657446 -0.448832
vt 0.657446 -0.464107
vt 0.150859 -0.701967
vt 0.431849 -0.599897
vt 0.484130 -0.701967
vt 0.266135 -0.803859
vt 0.547125 -0.905929
vt 0.213854 -0.905929
vt 0.657446 -0.007822
vt 0.168866 -0.599897
vt 0.529118 -0.803859
vt 0.675888 -0.007822
vt 0.990779 -0.075510
vt 0.675888 -0.075510
vt 0.670336 -0.788216
vt 0.484130 -0.788216
vt 0.324112 -0.584253
vt 0.009221 -0.568622
vt 0.324112 -0.568622
vt 0.688763 -0.924490
vt 0.547125 -0.992178
vt 0.150859 -0.788216
vt 0.027648 -0.992178
vt 0.213854 -0.992178
vt 0.009221 -0.720528
vt 0.990779 -0.007822
vt 0.688763 -0.730454
vt 0.009221 -0.584253
vt 0.688763 -0.992178
vt 0.009221 -0.934417
vt 0.009221 -0.788216
vt 0.009221 -0.410670
vt 0.009221 -0.127968
vt 0.324112 -0.410670
vt 0.009221 -0.007822
vt 0.324112 -0.127968
vt 0.324112 -0.007822
vt 0.722671 -0.396622
vt 0.675888 -0.396622
vt 0.678709 -0.383795
vt 0.835808 -0.524097
vt 0.865277 -0.511270
vt 0.865277 -0.524097
vt 0.881463 -0.307110
vt 0.834680 -0.307110
vt 0.878642 -0.294283
vt 0.686833 -0.372515
vt 0.835808 -0.511270
vt 0.865277 -0.499990
vt 0.870518 -0.283004
vt 0.699279 -0.364143
vt 0.769454 -0.538711
vt 0.739985 -0.549269
vt 0.739985 -0.538711
vt 0.858071 -0.274631
vt 0.714547 -0.359688
vt 0.769454 -0.549269
vt 0.739985 -0.562220
vt 0.842804 -0.270177
vt 0.730795 -0.359688
vt 0.769454 -0.562220
vt 0.739985 -0.576002
vt 0.826556 -0.270177
vt 0.746063 -0.364143
vt 0.769454 -0.576002
vt 0.739985 -0.588953
vt 0.811288 -0.274631
vt 0.758509 -0.372515
vt 0.769454 -0.588953
vt 0.739985 -0.599511
vt 0.798842 -0.283004
vt 0.766633 -0.383795
vt 0.865277 -0.563847
vt 0.835808 -0.575127
vt 0.835808 -0.563847
vt 0.790718 -0.294283
vt 0.769454 -0.396622
vt 0.865277 -0.575127
vt 0.835808 -0.587954
vt 0.787897 -0.307110
vt 0.766633 -0.409449
vt 0.865277 -0.587954
vt 0.835808 -0.600781
vt 0.790718 -0.319937
vt 0.758509 -0.420729
vt 0.865277 -0.600781
vt 0.835808 -0.612061
vt 0.798842 -0.331217
vt 0.746063 -0.429101
vt 0.769454 -0.615155
vt 0.739985 -0.625713
vt 0.739985 -0.615155
vt 0.811288 -0.339589
vt 0.730795 -0.433556
vt 0.769454 -0.625713
vt 0.739985 -0.638664
vt 0.826556 -0.344044
vt 0.714547 -0.433556
vt 0.769454 -0.638664
vt 0.739985 -0.652446
vt 0.842804 -0.344044
vt 0.699279 -0.429101
vt 0.769454 -0.652446
vt 0.739985 -0.665398
vt 0.858071 -0.339589
vt 0.686833 -0.420729
vt 0.769454 -0.665398
vt 0.739985 -0.675955
vt 0.870518 -0.331217
vt 0.678709 -0.409449
vt 0.835808 -0.548203
vt 0.865277 -0.536924
vt 0.865277 -0.548203
vt 0.878642 -0.319937
vt 0.835808 -0.536924
vt 0.834680 -0.217599
vt 0.787897 -0.217599
vt 0.790718 -0.204772
vt 0.883719 -0.383795
vt 0.913188 -0.370968
vt 0.913188 -0.383795
vt 0.881463 -0.128088
vt 0.834680 -0.128088
vt 0.878642 -0.115261
vt 0.798842 -0.193492
vt 0.883719 -0.370968
vt 0.913188 -0.359688
vt 0.870518 -0.103981
vt 0.811288 -0.185120
vt 0.865277 -0.359688
vt 0.835808 -0.370246
vt 0.835808 -0.359688
vt 0.858071 -0.095609
vt 0.826556 -0.180665
vt 0.865277 -0.370246
vt 0.835808 -0.383197
vt 0.842804 -0.091154
vt 0.842804 -0.180665
vt 0.865277 -0.383197
vt 0.835808 -0.396979
vt 0.826556 -0.091154
vt 0.858071 -0.185120
vt 0.865277 -0.396979
vt 0.835808 -0.409930
vt 0.811288 -0.095609
vt 0.870518 -0.193492
vt 0.865277 -0.409930
vt 0.835808 -0.420488
vt 0.798842 -0.103981
vt 0.878642 -0.204772
vt 0.913188 -0.423546
vt 0.883719 -0.434825
vt 0.883719 -0.423546
vt 0.790718 -0.115261
vt 0.881463 -0.217599
vt 0.913188 -0.434825
vt 0.883719 -0.447652
vt 0.787897 -0.128088
vt 0.878642 -0.230426
vt 0.913188 -0.447652
vt 0.883719 -0.460479
vt 0.790718 -0.140914
vt 0.870518 -0.241706
vt 0.913188 -0.471759
vt 0.883719 -0.471759
vt 0.798842 -0.152194
vt 0.858071 -0.250078
vt 0.817366 -0.589021
vt 0.787897 -0.599579
vt 0.787897 -0.589021
vt 0.811288 -0.160567
vt 0.842804 -0.254533
vt 0.817366 -0.599579
vt 0.787897 -0.612530
vt 0.826556 -0.165021
vt 0.826556 -0.254533
vt 0.817366 -0.612530
vt 0.787897 -0.626312
vt 0.842804 -0.165021
vt 0.811288 -0.250078
vt 0.817366 -0.639263
vt 0.787897 -0.639263
vt 0.858071 -0.160567
vt 0.798842 -0.241706
vt 0.787897 -0.649821
vt 0.870518 -0.152194
vt 0.790718 -0.230426
vt 0.883719 -0.407902
vt 0.913188 -0.396622
vt 0.913188 -0.407902
vt 0.878642 -0.140914
vt 0.883719 -0.396622
vt 0.722671 -0.486133
vt 0.675888 -0.486133
vt 0.678709 -0.473306
vt 0.835808 -0.651812
vt 0.865277 -0.638985
vt 0.865277 -0.651812
vt 0.769454 -0.128088
vt 0.722671 -0.128088
vt 0.766633 -0.115261
vt 0.686833 -0.462026
vt 0.835808 -0.638985
vt 0.865277 -0.627705
vt 0.758509 -0.103981
vt 0.699279 -0.453654
vt 0.817366 -0.359688
vt 0.787897 -0.370246
vt 0.787897 -0.359688
vt 0.746063 -0.095609
vt 0.714547 -0.449199
vt 0.817366 -0.370246
vt 0.787897 -0.383197
vt 0.730795 -0.091154
vt 0.730795 -0.449199
vt 0.817366 -0.383197
vt 0.787897 -0.396979
vt 0.714547 -0.091154
vt 0.746063 -0.453654
vt 0.817366 -0.396979
vt 0.787897 -0.409930
vt 0.699279 -0.095609
vt 0.758509 -0.462026
vt 0.817366 -0.409930
vt 0.787897 -0.420488
vt 0.686833 -0.103981
vt 0.766633 -0.473306
vt 0.865277 -0.436132
vt 0.835808 -0.447412
vt 0.835808 -0.436132
vt 0.678709 -0.115261
vt 0.769454 -0.486133
vt 0.865277 -0.447412
vt 0.835808 -0.460239
vt 0.675888 -0.128088
vt 0.766633 -0.498960
vt 0.865277 -0.460239
vt 0.835808 -0.473066
vt 0.678709 -0.140914
vt 0.758509 -0.510240
vt 0.865277 -0.473066
vt 0.835808 -0.484346
vt 0.686833 -0.152194
vt 0.746063 -0.518612
vt 0.817366 -0.436132
vt 0.787897 -0.446690
vt 0.787897 -0.436132
vt 0.699279 -0.160567
vt 0.730795 -0.523067
vt 0.817366 -0.446690
vt 0.787897 -0.459641
vt 0.714547 -0.165021
vt 0.714547 -0.523067
vt 0.817366 -0.459641
vt 0.787897 -0.473424
vt 0.730795 -0.165021
vt 0.699279 -0.518612
vt 0.817366 -0.473424
vt 0.787897 -0.486375
vt 0.746063 -0.160567
vt 0.686833 -0.510240
vt 0.817366 -0.486375
vt 0.787897 -0.496933
vt 0.758509 -0.152194
vt 0.678709 -0.498960
vt 0.835808 -0.675918
vt 0.865277 -0.664639
vt 0.865277 -0.675918
vt 0.766633 -0.140914
vt 0.722671 -0.217599
vt 0.675888 -0.217599
vt 0.678709 -0.204772
vt 0.739985 -0.715706
vt 0.769454 -0.702879
vt 0.769454 -0.715706
vt 0.769454 -0.307110
vt 0.722671 -0.307110
vt 0.766633 -0.294283
vt 0.686833 -0.193492
vt 0.739985 -0.702879
vt 0.769454 -0.691599
vt 0.758509 -0.283004
vt 0.699279 -0.185120
vt 0.787897 -0.665465
vt 0.817366 -0.676023
vt 0.787897 -0.676023
vt 0.746063 -0.274631
vt 0.714547 -0.180665
vt 0.817366 -0.688974
vt 0.787897 -0.688974
vt 0.730795 -0.270177
vt 0.730795 -0.180665
vt 0.787897 -0.702756
vt 0.714547 -0.270177
vt 0.746063 -0.185120
vt 0.817366 -0.702756
vt 0.787897 -0.715707
vt 0.699279 -0.274631
vt 0.758509 -0.193492
vt 0.817366 -0.715707
vt 0.787897 -0.726265
vt 0.686833 -0.283004
vt 0.766633 -0.204772
vt 0.865277 -0.691562
vt 0.835808 -0.702842
vt 0.835808 -0.691562
vt 0.678709 -0.294283
vt 0.769454 -0.217599
vt 0.865277 -0.702842
vt 0.835808 -0.715669
vt 0.675888 -0.307110
vt 0.766633 -0.230426
vt 0.865277 -0.715669
vt 0.835808 -0.728496
vt 0.678709 -0.319937
vt 0.758509 -0.241706
vt 0.865277 -0.728496
vt 0.835808 -0.739776
vt 0.686833 -0.331217
vt 0.746063 -0.250078
vt 0.817366 -0.512576
vt 0.787897 -0.523134
vt 0.787897 -0.512576
vt 0.699279 -0.339589
vt 0.730795 -0.254533
vt 0.817366 -0.523134
vt 0.787897 -0.536085
vt 0.714547 -0.344044
vt 0.714547 -0.254533
vt 0.817366 -0.536085
vt 0.787897 -0.549868
vt 0.730795 -0.344044
vt 0.699279 -0.250078
vt 0.817366 -0.549868
vt 0.787897 -0.562819
vt 0.746063 -0.339589
vt 0.686833 -0.241706
vt 0.817366 -0.562819
vt 0.787897 -0.573377
vt 0.758509 -0.331217
vt 0.678709 -0.230426
vt 0.739985 -0.739813
vt 0.769454 -0.728533
vt 0.769454 -0.739813
vt 0.766633 -0.319937
vt 0.739985 -0.728533
vt 0.835808 -0.499990
vt 0.769454 -0.599511
vt 0.865277 -0.612061
vt 0.769454 -0.675955
vt 0.883719 -0.359688
vt 0.865277 -0.420488
vt 0.913188 -0.460479
vt 0.817366 -0.626312
vt 0.817366 -0.649821
vt 0.835808 -0.627705
vt 0.817366 -0.420488
vt 0.865277 -0.484346
vt 0.817366 -0.496933
vt 0.835808 -0.664639
vt 0.739985 -0.691599
vt 0.817366 -0.665465
vt 0.817366 -0.726265
vt 0.865277 -0.739776
vt 0.817366 -0.573377
vn 0.0000 0.3985 -0.9172
vn 0.0000 0.9883 0.1527
vn 0.0000 0.9868 -0.1619
vn 0.0000 1.0000 -0.0000
vn 0.0000 0.1480 0.9890
vn -1.0000 0.0000 0.0000
vn 1.0000 -0.0000 -0.0000
vn 0.0000 -0.0000 1.0000
vn -0.0000 -0.2612 -0.9653
vn -0.0000 -1.0000 -0.0000
vn -0.0000 0.1834 -0.9830
vn 0.0000 0.5213 -0.8534
vn -0.0000 0.7835 -0.6213
vn 0.0000 0.9456 -0.3253
vn 0.0000 0.9456 0.3253
vn 0.0000 0.7835 0.6213
vn 0.0000 0.5213 0.8534
vn -0.0000 0.1834 0.9830
vn -0.0000 -0.1834 0.9830
vn -0.0000 -0.5213 0.8534
vn -0.0000 -0.7835 0.6213
vn -0.0000 -0.9456 0.3253
vn -0.0000 -0.9456 -0.3253
vn 0.0000 -0.7835 -0.6213
vn 0.0000 -0.5213 -0.8534
vn -0.0000 -0.1834 -0.9830
usemtl Material.001
s 1
f 1/1/1 2/2/1 3/3/1
f 1/1/1 4/4/1 2/2/1
usemtl Material.002
f 5/5/2 6/6/2 7/7/2
f 8/8/3 3/3/3 2/2/3
f 9/9/4 1/1/4 10/10/4
f 9/9/5 11/11/5 5/5/5
f 11/12/6 1/13/6 3/14/6
f 4/15/7 5/16/7 2/17/7
f 5/5/2 11/11/2 6/6/2
f 8/8/3 12/18/3 3/3/3
f 9/9/4 4/4/4 1/1/4
f 9/9/5 10/10/5 11/11/5
f 11/12/6 10/19/6 1/13/6
f 4/15/7 9/20/7 5/16/7
usemtl Material.003
f 7/21/8 13/22/8 14/23/8
f 3/14/6 15/24/6 16/25/6
f 12/26/9 17/27/9 15/28/9
f 7/29/7 18/30/7 5/16/7
f 19/31/6 3/14/6 16/25/6
f 17/32/7 2/17/7 20/33/7
f 20/33/7 5/16/7 18/30/7
f 19/31/6 6/34/6 11/12/6
f 7/21/8 6/35/8 13/22/8
f 3/14/6 12/36/6 15/24/6
f 12/26/9 8/37/9 17/27/9
f 7/29/7 14/38/7 18/30/7
f 19/31/6 11/12/6 3/14/6
f 17/32/7 8/39/7 2/17/7
f 20/33/7 2/17/7 5/16/7
f 19/31/6 13/40/6 6/34/6
usemtl Material.004
f 20/41/10 15/28/10 17/27/10
f 18/42/10 16/43/10 20/41/10
f 14/44/10 19/45/10 18/42/10
f 20/41/10 16/43/10 15/28/10
f 18/42/10 19/45/10 16/43/10
f 14/44/10 13/46/10 19/45/10
usemtl Material.005
f 21/47/7 22/48/7 23/49/7
f 24/50/11 23/51/11 22/52/11
f 24/53/6 25/54/6 26/55/6
f 21/47/7 23/49/7 27/56/7
f 26/57/12 27/58/12 23/51/12
f 26/55/6 25/54/6 28/59/6
f 21/47/7 27/56/7 29/60/7
f 28/61/13 29/62/13 27/63/13
f 28/59/6 25/54/6 30/64/6
f 21/47/7 29/60/7 31/65/7
f 30/66/14 31/67/14 29/62/14
f 30/64/6 25/54/6 32/68/6
f 21/47/7 31/65/7 33/69/7
f 32/70/4 33/71/4 31/67/4
f 32/68/6 25/54/6 34/72/6
f 21/47/7 33/69/7 35/73/7
f 34/74/15 35/75/15 33/71/15
f 34/72/6 25/54/6 36/76/6
f 21/47/7 35/73/7 37/77/7
f 36/78/16 37/79/16 35/75/16
f 36/76/6 25/54/6 38/80/6
f 21/47/7 37/77/7 39/81/7
f 38/82/17 39/83/17 37/84/17
f 38/80/6 25/54/6 40/85/6
f 21/47/7 39/81/7 41/86/7
f 40/87/18 41/88/18 39/83/18
f 40/85/6 25/54/6 42/89/6
f 21/47/7 41/86/7 43/90/7
f 42/91/19 43/92/19 41/88/19
f 42/89/6 25/54/6 44/93/6
f 21/47/7 43/90/7 45/94/7
f 44/95/20 45/96/20 43/92/20
f 44/93/6 25/54/6 46/97/6
f 21/47/7 45/94/7 47/98/7
f 46/99/21 47/100/21 45/101/21
f 46/97/6 25/54/6 48/102/6
f 21/47/7 47/98/7 49/103/7
f 48/104/22 49/105/22 47/100/22
f 48/102/6 25/54/6 50/106/6
f 21/47/7 49/103/7 51/107/7
f 50/108/10 51/109/10 49/105/10
f 50/106/6 25/54/6 52/110/6
f 21/47/7 51/107/7 53/111/7
f 52/112/23 53/113/23 51/109/23
f 52/110/6 25/54/6 54/114/6
f 21/47/7 53/111/7 55/115/7
f 54/116/24 55/117/24 53/113/24
f 54/114/6 25/54/6 56/118/6
f 21/47/7 55/115/7 57/119/7
f 56/120/25 57/121/25 55/122/25
f 56/118/6 25/54/6 58/123/6
f 21/47/7 57/119/7 22/48/7
f 58/124/26 22/52/26 57/121/26
f 58/123/6 25/54/6 24/53/6
f 59/125/7 60/126/7 61/127/7
f 62/128/11 61/129/11 60/130/11
f 62/131/6 63/132/6 64/133/6
f 59/125/7 61/127/7 65/134/7
f 64/135/12 65/136/12 61/129/12
f 64/133/6 63/132/6 66/137/6
f 59/125/7 65/134/7 67/138/7
f 66/139/13 67/140/13 65/141/13
f 66/137/6 63/132/6 68/142/6
f 59/125/7 67/138/7 69/143/7
f 68/144/14 69/145/14 67/140/14
f 68/142/6 63/132/6 70/146/6
f 59/125/7 69/143/7 71/147/7
f 70/148/4 71/149/4 69/145/4
f 70/146/6 63/132/6 72/150/6
f 59/125/7 71/147/7 73/151/7
f 72/152/15 73/153/15 71/149/15
f 72/150/6 63/132/6 74/154/6
f 59/125/7 73/151/7 75/155/7
f 74/156/16 75/157/16 73/153/16
f 74/154/6 63/132/6 76/158/6
f 59/125/7 75/155/7 77/159/7
f 76/160/17 77/161/17 75/162/17
f 76/158/6 63/132/6 78/163/6
f 59/125/7 77/159/7 79/164/7
f 78/165/18 79/166/18 77/161/18
f 78/163/6 63/132/6 80/167/6
f 59/125/7 79/164/7 81/168/7
f 80/169/19 81/170/19 79/166/19
f 80/167/6 63/132/6 82/171/6
f 59/125/7 81/168/7 83/172/7
f 81/170/20 84/173/20 83/174/20
f 82/171/6 63/132/6 84/175/6
f 59/125/7 83/172/7 85/176/7
f 84/177/21 85/178/21 83/179/21
f 84/175/6 63/132/6 86/180/6
f 59/125/7 85/176/7 87/181/7
f 86/182/22 87/183/22 85/178/22
f 86/180/6 63/132/6 88/184/6
f 59/125/7 87/181/7 89/185/7
f 88/186/10 89/187/10 87/183/10
f 88/184/6 63/132/6 90/188/6
f 59/125/7 89/185/7 91/189/7
f 89/187/23 92/190/23 91/191/23
f 90/188/6 63/132/6 92/192/6
f 59/125/7 91/189/7 93/193/7
f 92/190/24 93/194/24 91/191/24
f 92/192/6 63/132/6 94/195/6
f 59/125/7 93/193/7 95/196/7
f 94/197/25 95/198/25 93/199/25
f 94/195/6 63/132/6 96/200/6
f 59/125/7 95/196/7 60/126/7
f 96/201/26 60/130/26 95/198/26
f 96/200/6 63/132/6 62/131/6
f 97/202/7 98/203/7 99/204/7
f 100/205/11 99/206/11 98/207/11
f 100/208/6 101/209/6 102/210/6
f 97/202/7 99/204/7 103/211/7
f 102/212/12 103/213/12 99/206/12
f 102/210/6 101/209/6 104/214/6
f 97/202/7 103/211/7 105/215/7
f 104/216/13 105/217/13 103/218/13
f 104/214/6 101/209/6 106/219/6
f 97/202/7 105/215/7 107/220/7
f 106/221/14 107/222/14 105/217/14
f 106/219/6 101/209/6 108/223/6
f 97/202/7 107/220/7 109/224/7
f 108/225/4 109/226/4 107/222/4
f 108/223/6 101/209/6 110/227/6
f 97/202/7 109/224/7 111/228/7
f 110/229/15 111/230/15 109/226/15
f 110/227/6 101/209/6 112/231/6
f 97/202/7 111/228/7 113/232/7
f 112/233/16 113/234/16 111/230/16
f 112/231/6 101/209/6 114/235/6
f 97/202/7 113/232/7 115/236/7
f 114/237/17 115/238/17 113/239/17
f 114/235/6 101/209/6 116/240/6
f 97/202/7 115/236/7 117/241/7
f 116/242/18 117/243/18 115/238/18
f 116/240/6 101/209/6 118/244/6
f 97/202/7 117/241/7 119/245/7
f 118/246/19 119/247/19 117/243/19
f 118/244/6 101/209/6 120/248/6
f 97/202/7 119/245/7 121/249/7
f 120/250/20 121/251/20 119/247/20
f 120/248/6 101/209/6 122/252/6
f 97/202/7 121/249/7 123/253/7
f 122/254/21 123/255/21 121/256/21
f 122/252/6 101/209/6 124/257/6
f 97/202/7 123/253/7 125/258/7
f 124/259/22 125/260/22 123/255/22
f 124/257/6 101/209/6 126/261/6
f 97/202/7 125/258/7 127/262/7
f 126/263/10 127/264/10 125/260/10
f 126/261/6 101/209/6 128/265/6
f 97/202/7 127/262/7 129/266/7
f 128/267/23 129/268/23 127/264/23
f 128/265/6 101/209/6 130/269/6
f 97/202/7 129/266/7 131/270/7
f 130/271/24 131/272/24 129/268/24
f 130/269/6 101/209/6 132/273/6
f 97/202/7 131/270/7 133/274/7
f 132/275/25 133/276/25 131/277/25
f 132/273/6 101/209/6 134/278/6
f 97/202/7 133/274/7 98/203/7
f 133/276/26 100/205/26 98/207/26
f 134/278/6 101/209/6 100/208/6
f 135/279/7 136/280/7 137/281/7
f 138/282/11 137/283/11 136/284/11
f 138/285/6 139/286/6 140/287/6
f 135/279/7 137/281/7 141/288/7
f 140/289/12 141/290/12 137/283/12
f 140/287/6 139/286/6 142/291/6
f 135/279/7 141/288/7 143/292/7
f 141/293/13 144/294/13 143/295/13
f 142/291/6 139/286/6 144/296/6
f 135/279/7 143/292/7 145/297/7
f 143/295/14 146/298/14 145/299/14
f 144/296/6 139/286/6 146/300/6
f 135/279/7 145/297/7 147/301/7
f 146/298/4 147/302/4 145/299/4
f 146/300/6 139/286/6 148/303/6
f 135/279/7 147/301/7 149/304/7
f 148/305/15 149/306/15 147/302/15
f 148/303/6 139/286/6 150/307/6
f 135/279/7 149/304/7 151/308/7
f 150/309/16 151/310/16 149/306/16
f 150/307/6 139/286/6 152/311/6
f 135/279/7 151/308/7 153/312/7
f 152/313/17 153/314/17 151/315/17
f 152/311/6 139/286/6 154/316/6
f 135/279/7 153/312/7 155/317/7
f 154/318/18 155/319/18 153/314/18
f 154/316/6 139/286/6 156/320/6
f 135/279/7 155/317/7 157/321/7
f 156/322/19 157/323/19 155/319/19
f 156/320/6 139/286/6 158/324/6
f 135/279/7 157/321/7 159/325/7
f 158/326/20 159/327/20 157/323/20
f 158/324/6 139/286/6 160/328/6
f 135/279/7 159/325/7 161/329/7
f 160/330/21 161/331/21 159/332/21
f 160/328/6 139/286/6 162/333/6
f 135/279/7 161/329/7 163/334/7
f 162/335/22 163/336/22 161/331/22
f 162/333/6 139/286/6 164/337/6
f 135/279/7 163/334/7 165/338/7
f 164/339/10 165/340/10 163/336/10
f 164/337/6 139/286/6 166/341/6
f 135/279/7 165/338/7 167/342/7
f 166/343/23 167/344/23 165/340/23
f 166/341/6 139/286/6 168/345/6
f 135/279/7 167/342/7 169/346/7
f 168/347/24 169/348/24 167/344/24
f 168/345/6 139/286/6 170/349/6
f 135/279/7 169/346/7 171/350/7
f 170/351/25 171/352/25 169/353/25
f 170/349/6 139/286/6 172/354/6
f 135/279/7 171/350/7 136/280/7
f 172/355/26 136/284/26 171/352/26
f 172/354/6 139/286/6 138/285/6
f 24/50/11 26/57/11 23/51/11
f 26/57/12 28/356/12 27/58/12
f 28/61/13 30/66/13 29/62/13
f 30/66/14 32/70/14 31/67/14
f 32/70/4 34/74/4 33/71/4
f 34/74/15 36/78/15 35/75/15
f 36/78/16 38/357/16 37/79/16
f 38/82/17 40/87/17 39/83/17
f 40/87/18 42/91/18 41/88/18
f 42/91/19 44/95/19 43/92/19
f 44/95/20 46/358/20 45/96/20
f 46/99/21 48/104/21 47/100/21
f 48/104/22 50/108/22 49/105/22
f 50/108/10 52/112/10 51/109/10
f 52/112/23 54/116/23 53/113/23
f 54/116/24 56/359/24 55/117/24
f 56/120/25 58/124/25 57/121/25
f 58/124/26 24/50/26 22/52/26
f 62/128/11 64/135/11 61/129/11
f 64/135/12 66/360/12 65/136/12
f 66/139/13 68/144/13 67/140/13
f 68/144/14 70/148/14 69/145/14
f 70/148/4 72/152/4 71/149/4
f 72/152/15 74/156/15 73/153/15
f 74/156/16 76/361/16 75/157/16
f 76/160/17 78/165/17 77/161/17
f 78/165/18 80/169/18 79/166/18
f 80/169/19 82/362/19 81/170/19
f 81/170/20 82/362/20 84/173/20
f 84/177/21 86/182/21 85/178/21
f 86/182/22 88/186/22 87/183/22
f 88/186/10 90/363/10 89/187/10
f 89/187/23 90/363/23 92/190/23
f 92/190/24 94/364/24 93/194/24
f 94/197/25 96/201/25 95/198/25
f 96/201/26 62/128/26 60/130/26
f 100/205/11 102/212/11 99/206/11
f 102/212/12 104/365/12 103/213/12
f 104/216/13 106/221/13 105/217/13
f 106/221/14 108/225/14 107/222/14
f 108/225/4 110/229/4 109/226/4
f 110/229/15 112/233/15 111/230/15
f 112/233/16 114/366/16 113/234/16
f 114/237/17 116/242/17 115/238/17
f 116/242/18 118/246/18 117/243/18
f 118/246/19 120/250/19 119/247/19
f 120/250/20 122/367/20 121/251/20
f 122/254/21 124/259/21 123/255/21
f 124/259/22 126/263/22 125/260/22
f 126/263/10 128/267/10 127/264/10
f 128/267/23 130/271/23 129/268/23
f 130/271/24 132/368/24 131/272/24
f 132/275/25 134/369/25 133/276/25
f 133/276/26 134/369/26 100/205/26
f 138/282/11 140/289/11 137/283/11
f 140/289/12 142/370/12 141/290/12
f 141/293/13 142/371/13 144/294/13
f 143/295/14 144/294/14 146/298/14
f 146/298/4 148/305/4 147/302/4
f 148/305/15 150/309/15 149/306/15
f 150/309/16 152/372/16 151/310/16
f 152/313/17 154/318/17 153/314/17
f 154/318/18 156/322/18 155/319/18
f 156/322/19 158/326/19 157/323/19
f 158/326/20 160/373/20 159/327/20
f 160/330/21 162/335/21 161/331/21
f 162/335/22 164/339/22 163/336/22
f 164/339/10 166/343/10 165/340/10
f 166/343/23 168/347/23 167/344/23
f 168/347/24 170/374/24 169/348/24
f 170/351/25 172/355/25 171/352/25
f 172/355/26 138/282/26 136/284/26
