# Blender v2.91.2 OBJ File: ''
# www.blender.org
mtllib materials.mtl
o Cube_Cube.003
v -1.000000 -1.000000 1.000000
v -1.000000 1.000000 1.000000
v -1.000000 -1.000000 -1.000000
v -1.000000 1.000000 -1.000000
v 1.000000 -1.000000 1.000000
v 1.000000 1.000000 1.000000
v 1.000000 -1.000000 -1.000000
v 1.000000 1.000000 -1.000000
vt 0.625000 0.000000
vt 0.375000 0.250000
vt 0.375000 0.000000
vt 0.625000 0.500000
vt 0.375000 0.750000
vt 0.375000 0.500000
vt 0.125000 0.750000
vt 0.125000 0.500000
vt 0.625000 0.250000
vt 0.625000 0.750000
vt 0.375000 1.000000
vt 0.875000 0.500000
vt 0.625000 1.000000
vt 0.875000 0.750000
vn -1.0000 0.0000 0.0000
vn 1.0000 0.0000 0.0000
vn 0.0000 -1.0000 0.0000
vn 0.0000 0.0000 -1.0000
vn 0.0000 0.0000 1.0000
vn 0.0000 1.0000 0.0000
usemtl Material.006
s off
f 2/1/1 3/2/1 1/3/1
f 8/4/2 5/5/2 7/6/2
f 7/6/3 1/7/3 3/8/3
f 2/1/1 4/9/1 3/2/1
f 8/4/2 6/10/2 5/5/2
f 7/6/3 5/5/3 1/7/3
usemtl Material.007
f 4/9/4 7/6/4 3/2/4
f 6/10/5 1/11/5 5/5/5
f 4/12/6 6/10/6 8/4/6
f 4/9/4 8/4/4 7/6/4
f 6/10/5 2/13/5 1/11/5
f 4/12/6 2/14/6 6/10/6
